<?xml version="1.0" standalone="no"?>
<!DOCTYPE svg PUBLIC "-//W3C//DTD SVG 20010904//EN"
 "http://www.w3.org/TR/2001/REC-SVG-20010904/DTD/svg10.dtd">
<svg version="1.0" xmlns="http://www.w3.org/2000/svg"
 width="959.000000pt" height="959.000000pt" viewBox="0 0 959.000000 959.000000"
 preserveAspectRatio="xMidYMid meet">
<metadata>
Created by potrace 1.11, written by Peter Selinger 2001-2013
</metadata>
<g transform="translate(0.000000,959.000000) scale(0.100000,-0.100000)"
fill="#000000" stroke="none">
<path d="M6890 9068 c-108 -38 -390 -234 -670 -465 -19 -16 -63 -49 -97 -72
-34 -24 -64 -48 -66 -55 -3 -7 -47 -41 -99 -76 -51 -35 -120 -87 -153 -115
-131 -113 -346 -241 -427 -255 -31 -5 -272 -11 -535 -15 -263 -3 -540 -10
-615 -16 -151 -11 -169 -7 -219 47 -15 16 -98 97 -185 179 -87 83 -199 189
-249 236 -49 47 -102 94 -116 105 -15 10 -62 50 -105 88 -155 134 -311 216
-412 216 -76 -1 -156 -58 -189 -138 -37 -89 -47 -182 -48 -447 0 -143 3 -330
7 -416 5 -117 4 -160 -5 -171 -7 -8 -61 -44 -122 -79 -101 -59 -263 -178 -344
-253 -29 -28 -106 -122 -183 -225 -29 -39 -101 -182 -150 -296 -17 -38 -34
-74 -38 -80 -4 -5 -15 -30 -23 -55 -9 -25 -32 -92 -53 -150 -20 -58 -47 -139
-59 -180 -113 -369 -117 -383 -145 -495 -27 -106 -29 -117 -83 -385 -19 -96
-38 -195 -42 -220 -4 -25 -11 -72 -16 -105 -44 -291 -51 -605 -18 -817 30
-196 72 -316 152 -442 67 -104 338 -360 477 -451 25 -16 77 -54 115 -83 76
-58 194 -130 320 -195 44 -22 91 -48 105 -57 14 -9 61 -31 105 -49 147 -59
148 -80 4 -61 -161 21 -596 24 -794 6 -99 -10 -198 -21 -220 -26 -22 -5 -78
-16 -125 -26 -47 -9 -101 -20 -121 -24 -43 -8 -84 -36 -98 -68 -45 -97 47
-404 186 -619 21 -32 48 -78 62 -103 13 -25 40 -66 60 -92 20 -25 72 -93 115
-150 85 -110 216 -257 306 -341 30 -29 69 -66 87 -83 39 -38 41 -61 10 -112
-99 -160 -177 -409 -177 -562 0 -70 22 -190 45 -245 24 -57 101 -152 145 -180
20 -13 55 -28 77 -34 60 -16 77 -40 64 -88 -6 -21 -11 -57 -11 -81 0 -24 -4
-51 -9 -60 -5 -9 -12 -43 -15 -74 l-7 -58 70 0 c67 0 71 1 71 23 0 30 45 276
52 282 3 3 72 21 153 40 196 46 267 81 380 188 90 85 120 116 200 204 36 40
55 53 75 53 26 0 114 -21 230 -54 384 -111 676 -150 1125 -149 192 0 306 5
395 17 68 9 178 16 243 16 68 0 150 7 195 16 86 18 213 65 254 94 39 28 73 25
97 -7 11 -16 37 -44 58 -65 21 -20 83 -80 137 -133 54 -52 113 -106 130 -118
17 -12 49 -38 71 -58 120 -110 254 -203 323 -224 82 -24 174 63 217 205 4 14
13 39 20 55 16 37 51 142 116 345 27 85 54 169 60 185 13 37 65 254 85 355 25
132 29 281 10 354 -20 73 -47 104 -103 117 -58 13 -170 10 -248 -6 -38 -8 -71
-15 -72 -15 -12 0 4 43 40 108 78 138 91 171 79 197 -12 27 -90 87 -102 80 -4
-3 -35 -60 -69 -127 -33 -68 -70 -136 -80 -153 -11 -16 -35 -59 -54 -95 -33
-62 -104 -168 -217 -325 -28 -38 -59 -83 -69 -98 -33 -51 -234 -258 -310 -321
-104 -85 -207 -145 -321 -186 -81 -29 -251 -39 -344 -20 -114 24 -284 116
-336 183 -10 12 -30 47 -46 77 -25 49 -28 66 -29 150 0 102 6 126 72 270 29
64 117 195 160 238 7 7 13 17 13 20 0 22 416 425 545 527 33 26 71 59 85 72
14 13 84 72 155 130 72 59 136 112 142 117 7 6 30 25 52 41 22 17 40 37 41 46
0 24 -63 79 -91 79 -16 0 -57 -27 -121 -80 -53 -44 -101 -80 -107 -80 -6 0
-11 -4 -11 -9 0 -6 -150 -134 -219 -186 -7 -5 -27 -23 -45 -40 -17 -16 -58
-52 -91 -79 -33 -28 -83 -72 -112 -100 -57 -54 -53 -54 -128 -7 -60 38 -162
95 -220 124 -33 17 -67 37 -75 45 -32 32 -529 270 -705 337 -33 13 -107 42
-165 64 -58 23 -145 55 -195 71 -168 56 -156 60 105 30 469 -53 1063 -49 1522
10 204 26 230 38 208 95 -12 33 -47 53 -111 67 -46 9 -73 7 -179 -11 -396 -71
-721 -87 -1175 -56 -343 23 -716 67 -878 104 -75 18 -246 76 -320 110 -37 17
-70 31 -74 31 -3 0 -33 13 -67 29 -219 103 -302 147 -390 205 -55 36 -104 66
-110 66 -7 0 -45 27 -86 60 -41 33 -79 60 -84 60 -5 0 -21 11 -35 25 -14 13
-46 41 -71 60 -75 60 -228 213 -284 284 -76 95 -101 145 -126 246 -69 275 -66
595 9 1095 28 189 94 470 110 470 4 0 11 -53 14 -117 6 -133 44 -309 84 -386
64 -127 280 -308 423 -355 281 -92 470 -101 704 -36 136 38 180 65 292 178 91
92 105 111 156 216 31 63 66 142 79 175 12 33 28 74 35 90 44 101 94 399 94
565 0 276 -79 510 -228 677 -90 101 -184 156 -331 196 -162 43 -289 43 -448
-1 -61 -17 -132 -43 -158 -58 -87 -48 -167 -103 -200 -137 -18 -19 -44 -43
-57 -53 -68 -56 -194 -221 -253 -331 -15 -29 -36 -60 -46 -69 -16 -15 -17 -13
-8 25 5 22 15 55 23 73 12 29 28 69 83 223 27 72 105 247 143 320 227 428 726
713 1450 827 401 63 534 71 1375 83 204 3 403 9 443 14 91 11 200 62 327 155
50 36 114 82 143 103 78 56 176 135 185 150 4 7 14 13 22 13 7 0 15 3 17 8 4
9 85 72 93 72 7 0 101 74 130 102 11 11 47 39 80 63 33 25 83 63 110 85 28 22
66 51 85 65 19 14 69 50 110 80 166 121 208 145 268 152 44 5 51 2 91 -31 136
-114 218 -314 295 -721 19 -101 35 -250 45 -431 6 -95 14 -151 24 -170 9 -16
25 -49 37 -74 12 -25 39 -81 60 -125 21 -44 53 -116 70 -160 17 -44 38 -96 47
-115 8 -19 26 -71 39 -115 43 -149 72 -243 82 -262 26 -52 127 -512 152 -693
4 -30 14 -102 23 -160 50 -324 49 -864 -2 -1155 -36 -205 -76 -378 -119 -517
-31 -102 -146 -359 -194 -434 -15 -25 -28 -49 -28 -53 0 -5 -30 -51 -68 -102
-37 -52 -74 -105 -83 -119 -9 -14 -31 -40 -48 -59 -37 -42 -40 -79 -8 -118 79
-95 234 -394 292 -563 12 -36 43 -123 68 -195 57 -163 116 -403 167 -675 11
-63 25 -137 30 -165 26 -134 42 -256 75 -575 19 -184 36 -655 29 -825 -2 -72
-6 -174 -8 -227 l-4 -98 73 0 72 0 6 122 c10 179 8 528 -3 738 -14 253 -42
498 -95 830 -8 52 -22 140 -31 195 -16 105 -45 246 -68 330 -8 28 -20 75 -26
105 -12 52 -38 138 -95 315 -14 44 -34 108 -44 142 -11 33 -35 96 -55 138 -20
42 -36 79 -36 81 0 16 -117 242 -154 298 -52 78 -56 99 -22 135 29 32 102 137
145 211 38 65 50 86 72 120 20 30 92 199 142 330 75 200 119 380 157 645 5 39
15 97 20 130 6 33 13 188 16 345 7 318 -4 484 -56 841 -30 207 -41 260 -97
479 -94 363 -142 521 -208 680 -12 30 -37 93 -55 140 -42 109 -97 227 -122
263 -16 22 -21 54 -28 175 -22 383 -127 857 -223 1011 -12 20 -29 52 -39 72
-23 52 -134 161 -190 187 -72 33 -114 36 -188 10z m-3815 -395 c44 -25 98 -61
120 -80 22 -18 60 -49 85 -69 25 -20 75 -64 111 -98 36 -33 94 -83 128 -110
33 -28 61 -53 61 -58 0 -9 1 -10 148 -147 62 -58 111 -109 109 -115 -2 -5
-102 -24 -223 -41 -120 -18 -253 -40 -294 -50 -97 -22 -279 -72 -305 -84 -29
-13 -148 -51 -151 -48 -7 6 -19 440 -17 592 4 351 50 413 228 308z m-113
-1858 c31 -8 91 -31 134 -52 61 -30 91 -53 147 -114 76 -83 112 -152 147 -284
38 -140 38 -408 0 -568 -6 -23 -20 -82 -31 -132 -23 -99 -118 -316 -177 -405
-110 -167 -246 -236 -484 -247 -256 -12 -474 63 -627 216 -65 65 -95 117 -132
226 -20 62 -23 88 -23 235 0 158 2 171 37 301 44 165 78 240 174 387 71 109
169 218 264 295 59 48 212 123 286 141 77 19 215 19 285 1z m-287 -3879 c138
-17 465 -72 510 -86 17 -4 77 -18 135 -30 147 -31 322 -88 342 -111 14 -16 15
-25 7 -47 -6 -15 -11 -85 -10 -157 0 -71 -3 -136 -8 -144 -8 -13 -15 -12 -48
2 -56 24 -146 39 -190 32 -95 -17 -201 -48 -233 -70 -19 -12 -57 -35 -85 -50
-27 -15 -62 -36 -77 -46 -38 -27 -58 -25 -58 9 -1 92 -58 198 -169 309 -127
128 -277 185 -491 187 -106 1 -135 -2 -194 -22 -119 -40 -188 -101 -188 -166
0 -68 62 -132 203 -208 35 -19 78 -42 94 -51 101 -55 390 -151 514 -170 47 -7
86 -18 88 -24 2 -6 -26 -35 -63 -64 -125 -101 -315 -284 -382 -369 -78 -99
-98 -120 -113 -120 -13 0 -243 230 -314 314 -126 149 -185 222 -185 229 0 5
-41 65 -108 160 -18 26 -58 95 -89 154 -30 60 -59 113 -63 118 -10 14 -45 128
-60 195 -10 50 -15 96 -11 127 2 23 296 84 501 102 63 6 131 13 150 15 73 9
480 -4 595 -18z m-365 -281 c0 -9 -7 -18 -15 -21 -9 -4 -28 -27 -43 -53 -24
-40 -27 -56 -26 -128 1 -95 -1 -96 -73 -56 -115 63 -155 98 -166 141 -7 30 18
55 86 87 71 33 112 43 180 44 45 1 57 -2 57 -14z m399 -121 c66 -46 152 -162
171 -230 17 -61 7 -92 -38 -111 -32 -14 -47 -14 -116 -3 -109 18 -191 43 -191
60 0 7 12 20 27 29 69 41 113 138 102 223 -7 54 3 61 45 32z m849 -308 c61
-31 156 -147 173 -210 41 -151 -68 -442 -277 -736 -41 -58 -89 -127 -108 -155
-19 -27 -46 -61 -61 -75 -15 -14 -48 -52 -73 -85 -45 -59 -92 -111 -182 -205
-25 -26 -72 -75 -105 -110 -70 -73 -130 -105 -275 -149 -124 -37 -201 -44
-281 -25 -153 36 -219 138 -219 339 0 128 40 294 96 400 98 187 262 400 408
535 228 209 247 226 335 285 41 28 106 72 145 99 167 114 318 147 424 92z
m1417 -104 c93 -56 125 -80 125 -92 0 -4 -18 -27 -39 -51 -184 -205 -261 -309
-352 -474 -55 -101 -96 -281 -85 -368 4 -28 16 -78 27 -110 18 -55 19 -61 4
-77 -9 -10 -32 -21 -51 -25 -44 -8 -117 -75 -179 -165 -26 -37 -56 -70 -66
-73 -24 -6 -280 25 -429 53 -58 10 -125 22 -150 25 -64 9 -386 95 -409 109
-27 17 -20 28 136 229 136 174 309 486 333 597 4 19 15 62 23 95 9 33 18 81
22 107 l6 48 57 16 c31 8 80 26 108 39 124 57 191 58 224 3 27 -45 47 -184 58
-401 10 -194 16 -217 54 -217 20 0 188 154 188 172 0 5 9 19 21 31 23 24 144
217 179 285 36 69 64 209 53 264 -3 15 -3 34 1 43 7 19 10 18 141 -63z m1653
-524 c8 -8 8 -15 2 -24 -17 -19 -23 -164 -11 -244 16 -104 46 -191 88 -253 44
-64 67 -84 116 -97 27 -8 37 -16 37 -31 0 -63 -136 -478 -206 -627 -44 -95
-58 -108 -97 -98 -28 7 -283 199 -345 260 -26 26 -81 77 -122 114 -130 117
-213 209 -203 225 4 8 28 31 53 52 112 92 308 299 369 388 8 12 18 24 21 27 9
6 97 138 144 215 21 33 50 70 64 82 29 25 71 30 90 11z"/>
<path d="M2745 6256 c-54 -25 -122 -94 -149 -151 -40 -84 -45 -229 -11 -327
16 -45 96 -148 115 -148 5 0 26 -11 46 -25 49 -33 145 -35 205 -5 84 43 151
121 180 210 17 56 17 195 -1 241 -72 186 -238 274 -385 205z"/>
<path d="M6920 8549 c-22 -34 -40 -66 -40 -72 0 -5 -22 -46 -48 -91 -116 -193
-194 -383 -195 -471 -1 -65 21 -104 83 -150 106 -78 443 -155 480 -110 12 15
9 70 -10 145 -21 82 -96 405 -129 555 -64 285 -73 298 -141 194z"/>
<path d="M5567 7331 c-65 -11 -135 -26 -157 -35 -22 -9 -48 -16 -57 -16 -20 0
-274 -126 -299 -148 -11 -10 -32 -26 -48 -36 -45 -28 -157 -136 -190 -181 -16
-22 -40 -51 -54 -65 -21 -22 -52 -66 -89 -125 -34 -55 -96 -196 -119 -273 -15
-48 -35 -112 -44 -142 -87 -266 -55 -670 73 -938 30 -65 59 -104 124 -173 182
-191 317 -259 663 -333 228 -49 501 -47 720 5 309 73 345 88 556 230 174 117
304 464 305 811 0 237 -38 447 -123 681 -57 157 -125 275 -223 386 -80 92
-108 121 -118 121 -6 0 -25 14 -42 30 -36 35 -196 123 -275 151 -169 61 -410
80 -603 50z m329 -172 c156 -17 271 -57 384 -134 222 -149 359 -353 440 -655
36 -133 45 -223 45 -430 0 -295 -31 -434 -131 -590 -46 -73 -61 -87 -157 -153
-194 -134 -575 -212 -902 -185 -512 41 -822 258 -900 630 -52 252 -40 497 37
738 36 112 139 302 211 387 77 93 139 148 257 228 201 137 449 194 716 164z"/>
<path d="M5633 6416 c-69 -22 -170 -84 -203 -124 -48 -57 -91 -157 -101 -231
-9 -78 6 -153 51 -240 85 -167 298 -252 480 -191 132 44 184 90 246 214 64
130 56 258 -23 393 -37 63 -113 127 -190 158 -81 33 -195 42 -260 21z"/>
<path d="M3665 5140 c-122 -14 -204 -53 -240 -114 l-25 -43 20 -65 c22 -72 69
-149 159 -263 70 -87 99 -114 160 -145 23 -13 45 -30 49 -38 10 -27 -18 -182
-46 -256 -31 -81 -60 -103 -168 -130 -113 -28 -388 -13 -505 29 -60 21 -161
112 -189 170 -24 51 -23 81 6 156 15 39 16 50 5 63 -32 38 -93 1 -125 -76 -21
-49 -20 -147 1 -200 17 -44 63 -110 98 -140 28 -25 150 -83 210 -101 28 -8 70
-21 95 -28 32 -10 98 -14 225 -13 164 1 191 4 309 32 138 32 145 32 241 -12
55 -26 184 -55 354 -82 239 -36 554 5 701 92 111 66 158 153 145 267 -9 88
-59 162 -93 141 -13 -9 -18 -32 -23 -100 -7 -116 -22 -149 -83 -188 -76 -49
-295 -96 -446 -96 -94 0 -292 26 -378 50 -81 22 -145 59 -162 91 -17 30 -56
172 -70 253 -13 67 -12 70 10 88 12 10 29 18 37 18 61 0 238 150 320 272 62
92 69 129 37 188 -58 103 -179 159 -385 179 -124 12 -152 12 -244 1z"/>
<path d="M3220 4588 c-40 -43 -16 -98 43 -98 58 0 77 57 34 98 -29 28 -51 28
-77 0z"/>
<path d="M4437 4542 c-26 -29 -22 -70 8 -84 37 -17 95 12 95 46 0 48 -71 73
-103 38z"/>
<path d="M3057 4412 c-35 -38 -6 -112 43 -112 27 0 60 39 60 71 0 51 -70 78
-103 41z"/>
<path d="M3341 4364 c-26 -33 -26 -49 -1 -74 28 -28 66 -26 86 5 17 26 13 55
-12 80 -23 22 -50 18 -73 -11z"/>
<path d="M4608 4368 c-28 -22 -33 -63 -9 -87 26 -26 53 -27 74 -3 18 19 22 59
9 79 -12 19 -55 25 -74 11z"/>
<path d="M4322 4337 c-24 -26 -29 -59 -9 -74 63 -50 144 22 85 77 -28 26 -49
25 -76 -3z"/>
</g>
</svg>
